    <svg
                id="e56ccjq4k1jy1"
                xmlns="http://www.w3.org/2000/svg"
                xmlnsXlink="http://www.w3.org/1999/xlink"
                viewBox="0 0 170 130"
                shape-rendering="geometricPrecision"
                text-rendering="geometricPrecision"
              >
                <style>
<![CDATA[#e56ccjq4k1jy4_ts {animation: e56ccjq4k1jy4_ts__ts 5000ms linear infinite normal forwards}@keyframes e56ccjq4k1jy4_ts__ts { 0% {transform: translate(59.842700px,93.228992px) scale(1,1)} 50% {transform: translate(59.842700px,93.228992px) scale(0.511786,0.511786)} 100% {transform: translate(59.842700px,93.228992px) scale(1.084421,1.084421)} }#e56ccjq4k1jy5_ts {animation: e56ccjq4k1jy5_ts__ts 5000ms linear infinite normal forwards}@keyframes e56ccjq4k1jy5_ts__ts { 0% {transform: translate(51.030300px,50.876490px) scale(1,1)} 50% {transform: translate(51.030300px,50.876490px) scale(0.720224,0.720224)} 100% {transform: translate(51.030300px,50.876490px) scale(1,1)} }#e56ccjq4k1jy7_tr {animation: e56ccjq4k1jy7_tr__tr 5000ms linear infinite normal forwards}@keyframes e56ccjq4k1jy7_tr__tr { 0% {transform: translate(75.079386px,65.005860px) rotate(0deg)} 100% {transform: translate(75.079386px,65.005860px) rotate(360deg)} }#e56ccjq4k1jy8_tr {animation: e56ccjq4k1jy8_tr__tr 5000ms linear infinite normal forwards}@keyframes e56ccjq4k1jy8_tr__tr { 0% {transform: translate(75.989634px,64.994140px) rotate(0deg)} 100% {transform: translate(75.989634px,64.994140px) rotate(360deg)} }]]>
                </style>
                <g id="e56ccjq4k1jy2" clip-path="url(#e56ccjq4k1jy9)">
                  <g
                    id="e56ccjq4k1jy3"
                    transform="matrix(0.66875354228158 0 0 0.66875354228158 23.35077768553811 14.90997254970611)"
                  >
                    <g id="e56ccjq4k1jy4_ts" transform="translate(59.842700,93.228992) scale(1,1)">
                      <path
                        id="e56ccjq4k1jy4"
                        d="M39.656200,72.352500L22.031200,72.352500L22.031200,74.117200L39.656200,74.117200L39.656200,72.352500Z"
                        transform="translate(-30.843700,-73.234852)"
                        fill="rgb(255,255,255)"
                        stroke="none"
                        stroke-width="1"
                      />
                    </g>
                    <g id="e56ccjq4k1jy5_ts" transform="translate(51.030300,50.876490) scale(1,1)">
                      <path
                        id="e56ccjq4k1jy5"
                        d="M30.843800,30L13.218800,30L13.218800,31.764700L30.843800,31.764700L30.843800,30Z"
                        transform="translate(-22.031300,-30.882350)"
                        fill="rgb(255,255,255)"
                        stroke="none"
                        stroke-width="1"
                      />
                    </g>
                    <path
                      id="e56ccjq4k1jy6"
                      d="M141.001000,44.117900L89.867100,44.117900C89.768000,38.844300,88.738200,33.629900,86.825200,28.715500C82.215400,16.873400,70.500000,8,80,18C79.571700,13.755100,80.013100,17.016900,77,14C73.986900,10.983100,74.739600,8.428810,70.500000,8C66,6.500000,65.738300,4.829570,61.209000,3.067310C52.295800,-0.400592,42.510200,-0.931716,33.274900,1.551200C24.039600,4.034110,15.836000,9.401630,9.856590,16.873400C3.877220,24.345100,0.433821,33.531700,0.027030,43.097400C-0.379761,52.663200,2.271230,62.109500,7.594620,70.063100C12.918000,78.016700,20.636300,84.063000,29.627400,87.323000C38.618500,90.582900,48.413700,90.886600,57.589000,88.189800C66.764300,85.493100,74.841400,79.936500,80.646100,72.327900C86.450700,64.719200,89.680400,55.455200,89.865400,45.882600L141.001000,45.882600L141.001000,44.117900ZM44.944600,88.235500C36.124100,88.224900,27.517600,85.514600,20.279100,80.468000C13.040500,75.421300,7.515900,68.279600,4.445870,60.000200L55.519600,60.000200L55.519600,58.235500L3.841300,58.235500C2.557960,54.240300,1.865630,50.078600,1.786250,45.882600L46.707100,45.882600L46.707100,44.117900L1.786250,44.117900C1.907160,37.258200,3.661370,30.526400,6.903080,24.482000C10.144800,18.437600,14.780400,13.255000,20.424700,9.365040C26.069000,5.475040,32.559100,2.989900,39.355400,2.116160C46.151800,1.242420,53.058300,2.005320,59.501000,4.341430C64.671700,8.000010,68.592500,9.365040,70.500000,11C74,14,71.923700,10.865000,74,14C76.076300,17.135000,76.070600,15.604400,77,18C77.929400,20.395600,78.470300,21.182800,80.285300,23C82.100300,24.817200,79.607400,23.551400,82,24.482000C77.524900,17.381600,84.392600,25.412600,82,24.482000C79.699200,25.621200,84.564200,24.368100,82,24.482000C84.300800,23.342900,83.905500,32.396600,85.552600,30.425500C87.911400,36.947400,88.664400,43.942700,87.747400,50.818000C86.830400,57.693300,84.270600,64.245700,80.285300,69.919400C76.299900,75.593000,71.006600,80.220400,64.854300,83.409000C58.701900,86.597500,51.872200,88.253200,44.944600,88.235500Z"
                      transform="matrix(1 0 0 1 28.99900000000001 19.99413989999996)"
                      fill="rgb(250,250,250)"
                      stroke="none"
                      stroke-width="1"
                    />
                    <g id="e56ccjq4k1jy7_tr" transform="translate(75.079386,65.005860) rotate(0)">
                      <circle
                        id="e56ccjq4k1jy7"
                        r="5"
                        transform="translate(-40.080386,38.988280)"
                        fill="rgb(89,102,253)"
                        stroke="rgb(255,255,255)"
                        stroke-width="2"
                      />
                    </g>
                    <g id="e56ccjq4k1jy8_tr" transform="translate(75.989634,64.994140) rotate(0)">
                      <circle
                        id="e56ccjq4k1jy8"
                        r="18"
                        transform="translate(27.009366,-26)"
                        fill="rgb(245,195,124)"
                        stroke="rgb(255,255,255)"
                        stroke-width="2"
                      />
                    </g>
                  </g>
                  <clipPath id="e56ccjq4k1jy9" transform="matrix(1 0 0 1.18017236318558 0 -8.10775634335128)">
                    <rect
                      id="e56ccjq4k1jy10"
                      width="141"
                      height="90"
                      rx="0"
                      ry="0"
                      transform="matrix(1 0 0 1 28.99900000000001 19.99413989999996)"
                      fill="rgb(255,0,0)"
                      stroke="none"
                      stroke-width="1"
                    />
                  </clipPath>
                </g>
              </svg>